<svg xmlns="http://www.w3.org/2000/svg" xmlns:xlink="http://www.w3.org/1999/xlink" width="672.3" height="649.2" version="1.0">
  <defs>
    <path id="reuse-0" stroke-width="14.913834" d="M100 247h40q19 0 29 3t16 12q6 9 6 29 0 14-4 19t-17 8q14 4 19 11t5 22v15q0 16-4 23-3 8-11 11t-32 3h-47V247zm40 26v35h4q6 0 8-3l1-17-1-10-3-4-9-1zm0 59v44q9 0 11-3 2-2 2-12v-14q0-10-2-12t-11-3zM209 247h28q29 0 39 2t17 11q6 9 6 29 0 18-4 25-5 6-18 7 12 3 16 8t5 9l1 23v42h-38v-52q0-13-2-16-1-3-10-3v71h-40V247zm40 26v35q7 0 10-2 2-2 2-12v-9q0-7-2-9-3-3-10-3zM315 247h67v31h-27v29h26v30h-26v34h30v32h-70V247zM483 294h-38v-12l-1-10q-2-2-5-2-4 0-6 3t-2 9q0 8 3 12 2 3 11 9 27 16 34 26 7 11 7 34 0 16-4 24t-15 13q-11 6-26 6-16 0-28-6-11-7-15-16-3-10-3-27v-10h37v19q0 8 2 11 2 2 6 2t6-3q2-3 2-9 0-14-4-18l-19-14-20-15q-5-4-8-12t-3-21q0-18 4-26 5-8 15-13t25-5q15 0 26 5 12 6 15 13 4 8 4 27v6zM581 247v31h-24v125h-41V278h-24v-31h89z" style="-inkscape-font-specification:'Impact Condensed'"/>
  </defs>
  <defs>
    <linearGradient id="a">
      <stop offset="0" stop-color="#ff2400"/>
      <stop offset="1" stop-color="#ff9218"/>
    </linearGradient>
    <linearGradient id="d" x1="89.1" x2="147.8" y1="111.9" y2="168.1" gradientTransform="translate(-445 -575) scale(5.38184)" gradientUnits="userSpaceOnUse" xlink:href="#a"/>
    <linearGradient id="b">
      <stop offset="0" stop-color="#884535"/>
      <stop offset="1" stop-color="#900020"/>
    </linearGradient>
    <linearGradient id="c" x1="55.5" x2="110.1" y1="77.1" y2="131.9" gradientTransform="translate(-523 -633) scale(5.38184)" gradientUnits="userSpaceOnUse" xlink:href="#b"/>
  </defs>
  <g fill="#fff" stroke="#fff" stroke-width="1.3" font-family="Impact" font-size="17.2" font-stretch="condensed" font-weight="400" letter-spacing="0" style="line-height:125%;-inkscape-font-specification:'Gentium, Normal';text-align:start" word-spacing="0">
    <use stroke-width="14.913834" style="-inkscape-font-specification:'Impact Condensed'" xlink:href="#reuse-0"/>
  </g>
  <g font-family="Impact" font-size="17.2" font-stretch="condensed" font-weight="400" letter-spacing="0" style="line-height:125%;-inkscape-font-specification:'Gentium, Normal';text-align:start" word-spacing="0">
    <use style="-inkscape-font-specification:'Impact Condensed'" xlink:href="#reuse-0"/>
  </g>
  <path fill="url(#c)" d="M14-270c-151 0-141 66-141 66v68H17v20h-201s-97-11-97 141 84 147 84 147h51v-23h-50c-11 0-20-10-20-22V-17c0-11 9-21 20-21h353c2-7 3-14 3-22v-131s12-79-146-79zm-79 46a26 26 0 110 52 26 26 0 010-52z" color="#000" overflow="visible" style="marker:none" transform="translate(281 270)"/>
  <path fill="url(#d)" d="M308-62h-51v24h49c12 0 21 10 21 21v144c0 12-9 22-21 22H-47l-2 21v131s-12 79 145 79c151 0 142-66 142-66v-68H94v-20h201s96 11 96-141c0-143-74-147-83-147zM176 282a26 26 0 110 52 26 26 0 010-52z" color="#000" overflow="visible" style="marker:none" transform="translate(281 270)"/>
</svg>
